HIERARCHY
ROOT hip
{
	OFFSET 0.000000 0.000000 0.000000 
	CHANNELS 6 Xposition Yposition Zposition Xrotation Zrotation Yrotation
	JOINT abdomen
	{
		OFFSET 0.000000 3.402643 0.000000 
		CHANNELS 3 Xrotation Zrotation Yrotation
		JOINT chest
		{
			OFFSET 0.000000 8.438565 -0.680529 
			CHANNELS 3 Xrotation Zrotation Yrotation
			JOINT neck
			{
				OFFSET 0.000000 10.207942 -0.272212 
				CHANNELS 3 Xrotation Zrotation Yrotation
				JOINT head
				{
					OFFSET 0.000000 3.130431 0.000000 
					CHANNELS 3 Xrotation Zrotation Yrotation
					End Site
					{
						OFFSET 0.000000 3.130435 0.000000 
					}
				}
			}
			JOINT lCollar
			{
				OFFSET 3.470700 6.669187 -0.816635 
				CHANNELS 3 Yrotation Zrotation Xrotation
				JOINT lShldr
				{
					OFFSET 3.198488 0.000000 0.000000 
					CHANNELS 3 Zrotation Yrotation Xrotation
					JOINT lForeArm
					{
						OFFSET 10.139888 0.000000 0.000000 
						CHANNELS 3 Yrotation Zrotation Xrotation
						JOINT lHand
						{
							OFFSET 8.370511 0.000000 0.000000 
							CHANNELS 3 Zrotation Yrotation Xrotation
							End Site
							{
								OFFSET 4.083176 0.000000 0.000000 
							}
						}
					}
				}
			}
			JOINT rCollar
			{
				OFFSET -3.470700 6.669187 -0.816635 
				CHANNELS 3 Yrotation Zrotation Xrotation
				JOINT rShldr
				{
					OFFSET -3.198488 0.000000 0.000000 
					CHANNELS 3 Zrotation Yrotation Xrotation
					JOINT rForeArm
					{
						OFFSET -10.139888 0.000000 0.000000 
						CHANNELS 3 Yrotation Zrotation Xrotation
						JOINT rHand
						{
							OFFSET -8.370511 0.000000 0.000000 
							CHANNELS 3 Zrotation Yrotation Xrotation
							End Site
							{
								OFFSET -4.083176 0.000000 0.000000 
							}
						}
					}
				}
			}
		}
	}
	JOINT lThigh
	{
		OFFSET 5.308129 -1.633274 1.361059 
		CHANNELS 3 Xrotation Zrotation Yrotation
		JOINT lShin
		{
			OFFSET -2.041588 -20.007561 0.000000 
			CHANNELS 3 Xrotation Zrotation Yrotation
			JOINT lFoot
			{
				OFFSET 0.000000 -19.190928 -1.224953 
				CHANNELS 3 Xrotation Yrotation Zrotation
				End Site
				{
					OFFSET 0.000000 -2.449906 4.627600 
				}
			}
		}
	}
	JOINT rThigh
	{
		OFFSET -5.308129 -1.633274 1.361059 
		CHANNELS 3 Xrotation Zrotation Yrotation
		JOINT rShin
		{
			OFFSET 2.041588 -20.007561 0.000000 
			CHANNELS 3 Xrotation Zrotation Yrotation
			JOINT rFoot
			{
				OFFSET 0.000000 -19.190928 -1.224953 
				CHANNELS 3 Xrotation Yrotation Zrotation
				End Site
				{
					OFFSET 0.000000 -2.449906 4.627600 
				}
			}
		}
	}
}
MOTION
Frames: 6
Frame Time: 0.033333
34.231133 48.985390 -21.991444 -0.742328 -1.113188 -12.094956 0.000000 0.000000 0.000000 5.605554 -3.391943 -9.678992 8.352417 0.185370 -13.804243 3.707745 4.164492 -3.930382 -15.471196 -7.268318 4.502527 -48.204369 -18.686417 4.886367 -53.525845 -9.227150 23.041954 14.280723 15.290423 -2.165352 -6.198704 3.196174 5.044803 44.055305 -39.639935 41.583988 46.007462 17.001463 -1.341174 -15.554997 -5.483597 -3.246394 12.886122 9.988339 10.403294 18.189137 -3.174206 25.527355 -21.300257 3.628323 -19.250641 -31.229166 -11.356924 -13.566501 66.950752 5.741935 1.338584 -13.112467 0.601698 -5.269143 
33.870213 48.595028 -20.995522 -0.712946 -0.712836 -13.330975 0.000000 0.000000 0.000000 5.077655 -3.462952 -10.922771 7.624706 0.082961 -14.014942 3.846640 3.853907 -2.947340 -16.609776 -7.134305 3.971992 -48.270409 -27.379894 2.069796 -52.842392 -8.848248 18.080786 16.936611 12.687154 -2.221009 -7.645414 2.700539 4.513988 39.193336 -46.056625 43.517143 42.626537 17.289331 1.281317 -14.012357 -7.113293 -3.100383 15.014444 9.304997 10.569968 17.151890 -3.192097 26.601950 -21.860352 3.977763 -20.270439 -33.011257 -13.062246 -14.490458 65.707069 6.853908 0.020992 -12.880417 0.587112 -5.197387 
33.318516 48.236252 -19.827950 -0.898441 -0.165995 -14.157552 0.000000 0.000000 0.000000 4.637888 -3.562546 -12.193164 6.996715 -0.169061 -14.324926 3.770887 3.376653 -1.993804 -17.829609 -6.486133 3.490535 -49.373684 -34.721279 -1.326755 -52.645981 -7.589254 17.568201 16.985102 10.712318 -2.497824 -8.739017 1.596747 4.017605 34.295776 -51.504311 45.783424 38.910297 17.306353 3.278523 -11.785539 -8.049454 -3.088284 19.494183 8.309659 10.778544 12.196369 -3.101199 26.844954 -21.150745 3.877525 -20.484783 -33.563404 -14.618553 -15.277798 62.850922 8.212881 -1.528326 -12.773435 0.564186 -5.153229 
32.529987 47.893330 -18.538940 -0.644533 0.117180 -14.786471 0.000000 0.000000 0.000000 3.932362 -3.312513 -13.255103 6.070131 -0.214702 -14.804189 4.116907 2.472877 -1.297312 -18.796329 -5.329804 2.886022 -50.461555 -40.773182 -3.287410 -52.569241 -6.773604 17.125427 18.130180 7.987982 -2.833426 -9.384439 1.084579 3.334577 28.658558 -56.126064 49.144276 35.635952 17.391258 3.953891 -10.074275 -8.212763 -3.143759 25.455091 7.588214 11.367268 3.904800 -2.994500 26.703928 -19.224386 3.445765 -20.130016 -33.451138 -15.376095 -15.764840 58.845528 9.940965 -3.128872 -12.783955 0.570020 -5.150230 
31.479073 47.611561 -17.130632 -0.292969 0.009765 -15.400442 0.000000 0.000000 0.000000 3.265809 -2.866439 -13.913777 5.173594 0.033889 -15.225735 4.998345 1.734843 -0.900253 -19.340544 -3.406959 2.446595 -52.406307 -45.294636 -3.453747 -51.970535 -6.430873 17.021694 20.738447 4.652267 -3.273856 -9.258462 1.391145 2.736495 23.201303 -60.410591 52.781631 33.292782 17.307898 2.587362 -8.616802 -8.650420 -3.183188 29.695173 7.617165 12.156678 -0.566343 -2.593638 25.588120 -19.235947 3.536761 -20.789845 -32.163956 -15.065041 -16.030996 53.473827 11.766493 -6.600881 -12.754333 0.574428 -5.158502 
30.147650 47.474392 -15.622150 0.302738 -0.273434 -16.026882 0.000000 0.000000 0.000000 2.834056 -2.165320 -13.925818 3.640596 0.215797 -15.561572 6.444846 1.190561 -1.011661 -18.711718 -0.512536 2.353364 -55.316471 -49.348587 -1.162778 -51.539162 -6.591714 16.965893 22.885628 3.301692 -3.512050 -9.113801 1.762661 2.406043 21.177568 -63.295670 53.966553 32.308815 17.009752 0.169037 -6.560109 -8.805088 -3.272657 31.928709 8.574527 13.469321 -1.084379 -2.331261 22.696421 -20.082756 3.953780 -22.051508 -29.917253 -13.892559 -16.208200 47.488289 13.475488 -11.658441 -13.312838 0.628684 -5.388803 
